solid PinzaInferior
facet normal 0.0 0.0 -1.0
  outer loop
    vertex 40.131294762167336 71.33031303701347 1.127986593019159e-14
    vertex 42.04167276216733 68.79717003701346 1.127986593019159e-14
    vertex 40.131294762167336 53.330477037013466 1.127986593019159e-14
  endloop
endfacet
facet normal 0.0 0.0 -1.0
  outer loop
    vertex 42.04167276216733 68.79717003701346 1.127986593019159e-14
    vertex 40.131294762167336 71.33031303701347 1.127986593019159e-14
    vertex 67.18083176216733 71.34027395421094 1.127986593019159e-14
  endloop
endfacet
facet normal 0.0 0.0 -1.0
  outer loop
    vertex 42.04167276216733 68.79717003701346 1.127986593019159e-14
    vertex 67.18083176216733 71.34027395421094 1.127986593019159e-14
    vertex 65.27045376216734 68.79717003701346 1.127986593019159e-14
  endloop
endfacet
facet normal 0.0 0.0 -1.0
  outer loop
    vertex 65.27045376216734 68.79717003701346 1.127986593019159e-14
    vertex 67.18083176216733 71.34027395421094 1.127986593019159e-14
    vertex 65.27045376216734 53.340437954210955 1.127986593019159e-14
  endloop
endfacet
facet normal 0.0 0.0 -1.0
  outer loop
    vertex 65.27045376216734 53.340437954210955 1.127986593019159e-14
    vertex 67.18083176216733 71.34027395421094 1.127986593019159e-14
    vertex 67.18083176216733 53.340437954210955 1.127986593019159e-14
  endloop
endfacet
facet normal 0.0 0.0 -1.0
  outer loop
    vertex 42.04167276216733 53.330477037013466 1.127986593019159e-14
    vertex 40.131294762167336 53.330477037013466 1.127986593019159e-14
    vertex 42.04167276216733 68.79717003701346 1.127986593019159e-14
  endloop
endfacet
facet normal 0.0 0.0 1.0
  outer loop
    vertex 67.18083176216733 53.340437954210955 18.03425800000001
    vertex 65.27045376216734 68.79717003701346 18.03425800000001
    vertex 65.27045376216734 53.340437954210955 18.03425800000001
  endloop
endfacet
facet normal 0.0 0.0 1.0
  outer loop
    vertex 42.04167276216733 53.330477037013466 18.03425800000001
    vertex 40.131294762167336 71.33031303701347 18.03425800000001
    vertex 40.131294762167336 53.330477037013466 18.03425800000001
  endloop
endfacet
facet normal 0.0 0.0 1.0
  outer loop
    vertex 40.131294762167336 71.33031303701347 18.03425800000001
    vertex 42.04167276216733 53.330477037013466 18.03425800000001
    vertex 42.04167276216733 68.79717003701346 18.03425800000001
  endloop
endfacet
facet normal 0.0 0.0 1.0
  outer loop
    vertex 40.131294762167336 71.33031303701347 18.03425800000001
    vertex 42.04167276216733 68.79717003701346 18.03425800000001
    vertex 67.18083176216733 71.34027395421094 18.03425800000001
  endloop
endfacet
facet normal 0.0 0.0 1.0
  outer loop
    vertex 67.18083176216733 71.34027395421094 18.03425800000001
    vertex 42.04167276216733 68.79717003701346 18.03425800000001
    vertex 65.27045376216734 68.79717003701346 18.03425800000001
  endloop
endfacet
facet normal 0.0 0.0 1.0
  outer loop
    vertex 67.18083176216733 71.34027395421094 18.03425800000001
    vertex 65.27045376216734 68.79717003701346 18.03425800000001
    vertex 67.18083176216733 53.340437954210955 18.03425800000001
  endloop
endfacet
facet normal -1.0 0.0 0.0
  outer loop
    vertex 65.27045376216734 68.79717003701346 18.03425800000001
    vertex 65.27045376216734 53.340437954210955 1.127986593019159e-14
    vertex 65.27045376216734 53.340437954210955 18.03425800000001
  endloop
endfacet
facet normal -1.0 0.0 0.0
  outer loop
    vertex 65.27045376216734 53.340437954210955 1.127986593019159e-14
    vertex 65.27045376216734 68.79717003701346 18.03425800000001
    vertex 65.27045376216734 68.79717003701346 1.127986593019159e-14
  endloop
endfacet
facet normal -0.0 -1.0 -0.0
  outer loop
    vertex 65.27045376216734 68.79717003701346 18.03425800000001
    vertex 42.04167276216733 68.79717003701346 1.127986593019159e-14
    vertex 65.27045376216734 68.79717003701346 1.127986593019159e-14
  endloop
endfacet
facet normal -0.0 -1.0 -0.0
  outer loop
    vertex 42.04167276216733 68.79717003701346 1.127986593019159e-14
    vertex 65.27045376216734 68.79717003701346 18.03425800000001
    vertex 42.04167276216733 68.79717003701346 18.03425800000001
  endloop
endfacet
facet normal 1.0 0.0 0.0
  outer loop
    vertex 42.04167276216733 68.79717003701346 1.127986593019159e-14
    vertex 42.04167276216733 53.330477037013466 18.03425800000001
    vertex 42.04167276216733 53.330477037013466 1.127986593019159e-14
  endloop
endfacet
facet normal 1.0 0.0 0.0
  outer loop
    vertex 42.04167276216733 53.330477037013466 18.03425800000001
    vertex 42.04167276216733 68.79717003701346 1.127986593019159e-14
    vertex 42.04167276216733 68.79717003701346 18.03425800000001
  endloop
endfacet
facet normal -0.0 -1.0 -0.0
  outer loop
    vertex 42.04167276216733 53.330477037013466 18.03425800000001
    vertex 40.131294762167336 53.330477037013466 1.127986593019159e-14
    vertex 42.04167276216733 53.330477037013466 1.127986593019159e-14
  endloop
endfacet
facet normal -0.0 -1.0 -0.0
  outer loop
    vertex 40.131294762167336 53.330477037013466 1.127986593019159e-14
    vertex 42.04167276216733 53.330477037013466 18.03425800000001
    vertex 40.131294762167336 53.330477037013466 18.03425800000001
  endloop
endfacet
facet normal -1.0 0.0 0.0
  outer loop
    vertex 40.131294762167336 71.33031303701347 18.03425800000001
    vertex 40.131294762167336 53.330477037013466 1.127986593019159e-14
    vertex 40.131294762167336 53.330477037013466 18.03425800000001
  endloop
endfacet
facet normal -1.0 0.0 0.0
  outer loop
    vertex 40.131294762167336 53.330477037013466 1.127986593019159e-14
    vertex 40.131294762167336 71.33031303701347 18.03425800000001
    vertex 40.131294762167336 71.33031303701347 1.127986593019159e-14
  endloop
endfacet
facet normal -0.0003682472096326588 0.9999999321969941 0.0
  outer loop
    vertex 40.131294762167336 71.33031303701347 18.03425800000001
    vertex 67.18083176216733 71.34027395421094 1.127986593019159e-14
    vertex 40.131294762167336 71.33031303701347 1.127986593019159e-14
  endloop
endfacet
facet normal -0.0003682472096326588 0.9999999321969941 0.0
  outer loop
    vertex 67.18083176216733 71.34027395421094 1.127986593019159e-14
    vertex 40.131294762167336 71.33031303701347 18.03425800000001
    vertex 67.18083176216733 71.34027395421094 18.03425800000001
  endloop
endfacet
facet normal 1.0 -0.0 -0.0
  outer loop
    vertex 67.18083176216733 71.34027395421094 1.127986593019159e-14
    vertex 67.18083176216733 53.340437954210955 18.03425800000001
    vertex 67.18083176216733 53.340437954210955 1.127986593019159e-14
  endloop
endfacet
facet normal 1.0 -0.0 -0.0
  outer loop
    vertex 67.18083176216733 53.340437954210955 18.03425800000001
    vertex 67.18083176216733 71.34027395421094 1.127986593019159e-14
    vertex 67.18083176216733 71.34027395421094 18.03425800000001
  endloop
endfacet
facet normal -0.0 -1.0 -0.0
  outer loop
    vertex 67.18083176216733 53.340437954210955 18.03425800000001
    vertex 65.27045376216734 53.340437954210955 1.127986593019159e-14
    vertex 67.18083176216733 53.340437954210955 1.127986593019159e-14
  endloop
endfacet
facet normal -0.0 -1.0 -0.0
  outer loop
    vertex 65.27045376216734 53.340437954210955 1.127986593019159e-14
    vertex 67.18083176216733 53.340437954210955 18.03425800000001
    vertex 65.27045376216734 53.340437954210955 18.03425800000001
  endloop
endfacet
endsolid PinzaInferior
