solid PinzaLateral
facet normal 0.0 0.0 -1.0
  outer loop
    vertex 40.131294762167336 71.33031303701347 1.127986593019159e-14
    vertex 42.04167276216733 68.79717003701346 1.127986593019159e-14
    vertex 40.131294762167336 53.330477037013466 1.127986593019159e-14
  endloop
endfacet
facet normal 0.0 0.0 -1.0
  outer loop
    vertex 42.04167276216733 68.79717003701346 1.127986593019159e-14
    vertex 40.131294762167336 71.33031303701347 1.127986593019159e-14
    vertex 74.69795676216732 71.34027395421094 1.127986593019159e-14
  endloop
endfacet
facet normal 0.0 0.0 -1.0
  outer loop
    vertex 42.04167276216733 68.79717003701346 1.127986593019159e-14
    vertex 74.69795676216732 71.34027395421094 1.127986593019159e-14
    vertex 65.27045376216734 68.79717003701346 1.127986593019159e-14
  endloop
endfacet
facet normal 0.0 0.0 -1.0
  outer loop
    vertex 65.27045376216734 68.79717003701346 1.127986593019159e-14
    vertex 74.69795676216732 71.34027395421094 1.127986593019159e-14
    vertex 65.27045376216734 53.340437954210955 1.127986593019159e-14
  endloop
endfacet
facet normal 0.0 0.0 -1.0
  outer loop
    vertex 65.27045376216734 53.340437954210955 1.127986593019159e-14
    vertex 74.69795676216732 71.34027395421094 1.127986593019159e-14
    vertex 73.379276599347 53.340437954210955 1.127986593019159e-14
  endloop
endfacet
facet normal 0.0 0.0 -1.0
  outer loop
    vertex 42.04167276216733 53.330477037013466 1.127986593019159e-14
    vertex 40.131294762167336 53.330477037013466 1.127986593019159e-14
    vertex 42.04167276216733 68.79717003701346 1.127986593019159e-14
  endloop
endfacet
facet normal -0.0 -0.0 1.0
  outer loop
    vertex 73.379276599347 53.340437954210955 43.83535599999998
    vertex 65.27045376216734 68.79717003701346 43.83535599999998
    vertex 65.27045376216734 53.340437954210955 43.83535599999998
  endloop
endfacet
facet normal -0.0 -0.0 1.0
  outer loop
    vertex 42.04167276216733 53.330477037013466 43.83535599999998
    vertex 40.131294762167336 71.33031303701347 43.83535599999998
    vertex 40.131294762167336 53.330477037013466 43.83535599999998
  endloop
endfacet
facet normal -0.0 -0.0 1.0
  outer loop
    vertex 40.131294762167336 71.33031303701347 43.83535599999998
    vertex 42.04167276216733 53.330477037013466 43.83535599999998
    vertex 42.04167276216733 68.79717003701346 43.83535599999998
  endloop
endfacet
facet normal -0.0 -0.0 1.0
  outer loop
    vertex 40.131294762167336 71.33031303701347 43.83535599999998
    vertex 42.04167276216733 68.79717003701346 43.83535599999998
    vertex 74.69795676216732 71.34027395421094 43.83535599999998
  endloop
endfacet
facet normal -0.0 -0.0 1.0
  outer loop
    vertex 74.69795676216732 71.34027395421094 43.83535599999998
    vertex 42.04167276216733 68.79717003701346 43.83535599999998
    vertex 65.27045376216734 68.79717003701346 43.83535599999998
  endloop
endfacet
facet normal -0.0 -0.0 1.0
  outer loop
    vertex 74.69795676216732 71.34027395421094 43.83535599999998
    vertex 65.27045376216734 68.79717003701346 43.83535599999998
    vertex 73.379276599347 53.340437954210955 43.83535599999998
  endloop
endfacet
facet normal -1.0 0.0 0.0
  outer loop
    vertex 65.27045376216734 68.79717003701346 43.83535599999998
    vertex 65.27045376216734 53.340437954210955 1.127986593019159e-14
    vertex 65.27045376216734 53.340437954210955 43.83535599999998
  endloop
endfacet
facet normal -1.0 0.0 0.0
  outer loop
    vertex 65.27045376216734 53.340437954210955 1.127986593019159e-14
    vertex 65.27045376216734 68.79717003701346 43.83535599999998
    vertex 65.27045376216734 68.79717003701346 1.127986593019159e-14
  endloop
endfacet
facet normal -0.0 -1.0 -0.0
  outer loop
    vertex 65.27045376216734 68.79717003701346 43.83535599999998
    vertex 42.04167276216733 68.79717003701346 1.127986593019159e-14
    vertex 65.27045376216734 68.79717003701346 1.127986593019159e-14
  endloop
endfacet
facet normal -0.0 -1.0 -0.0
  outer loop
    vertex 42.04167276216733 68.79717003701346 1.127986593019159e-14
    vertex 65.27045376216734 68.79717003701346 43.83535599999998
    vertex 42.04167276216733 68.79717003701346 43.83535599999998
  endloop
endfacet
facet normal 1.0 0.0 0.0
  outer loop
    vertex 42.04167276216733 68.79717003701346 1.127986593019159e-14
    vertex 42.04167276216733 53.330477037013466 43.83535599999998
    vertex 42.04167276216733 53.330477037013466 1.127986593019159e-14
  endloop
endfacet
facet normal 1.0 0.0 0.0
  outer loop
    vertex 42.04167276216733 53.330477037013466 43.83535599999998
    vertex 42.04167276216733 68.79717003701346 1.127986593019159e-14
    vertex 42.04167276216733 68.79717003701346 43.83535599999998
  endloop
endfacet
facet normal -0.0 -1.0 -0.0
  outer loop
    vertex 42.04167276216733 53.330477037013466 43.83535599999998
    vertex 40.131294762167336 53.330477037013466 1.127986593019159e-14
    vertex 42.04167276216733 53.330477037013466 1.127986593019159e-14
  endloop
endfacet
facet normal -0.0 -1.0 -0.0
  outer loop
    vertex 40.131294762167336 53.330477037013466 1.127986593019159e-14
    vertex 42.04167276216733 53.330477037013466 43.83535599999998
    vertex 40.131294762167336 53.330477037013466 43.83535599999998
  endloop
endfacet
facet normal -1.0 0.0 0.0
  outer loop
    vertex 40.131294762167336 71.33031303701347 43.83535599999998
    vertex 40.131294762167336 53.330477037013466 1.127986593019159e-14
    vertex 40.131294762167336 53.330477037013466 43.83535599999998
  endloop
endfacet
facet normal -1.0 0.0 0.0
  outer loop
    vertex 40.131294762167336 53.330477037013466 1.127986593019159e-14
    vertex 40.131294762167336 71.33031303701347 43.83535599999998
    vertex 40.131294762167336 71.33031303701347 1.127986593019159e-14
  endloop
endfacet
facet normal -0.00028816542320203294 0.9999999584803436 -7.210567232384271e-21
  outer loop
    vertex 40.131294762167336 71.33031303701347 1.127986593019159e-14
    vertex 67.18083176216733 71.34027395421094 2.1336693237335633
    vertex 74.69795676216732 71.34027395421094 1.127986593019159e-14
  endloop
endfacet
facet normal -0.00028816542320203294 0.9999999584803436 -7.210567232384271e-21
  outer loop
    vertex 67.18083176216733 71.34027395421094 2.1336693237335633
    vertex 40.131294762167336 71.33031303701347 1.127986593019159e-14
    vertex 40.131294762167336 71.33031303701347 43.83535599999998
  endloop
endfacet
facet normal -0.00028816542320203294 0.9999999584803436 -7.210567232384271e-21
  outer loop
    vertex 67.18083176216733 71.34027395421094 2.1336693237335633
    vertex 40.131294762167336 71.33031303701347 43.83535599999998
    vertex 67.18083176216733 71.34027395421094 41.70168667626643
  endloop
endfacet
facet normal -0.00028816542320203294 0.9999999584803436 -7.210567232384271e-21
  outer loop
    vertex 67.18083176216733 71.34027395421094 41.70168667626643
    vertex 40.131294762167336 71.33031303701347 43.83535599999998
    vertex 73.08648791683778 71.34027395421094 41.70168667626643
  endloop
endfacet
facet normal -0.00028816542320203294 0.9999999584803436 -7.210567232384271e-21
  outer loop
    vertex 74.69795676216732 71.34027395421094 1.127986593019159e-14
    vertex 73.08648791683778 71.34027395421094 2.1336693237335633
    vertex 74.69795676216732 71.34027395421094 43.83535599999998
  endloop
endfacet
facet normal -0.00028816542320203294 0.9999999584803436 -7.210567232384271e-21
  outer loop
    vertex 73.08648791683778 71.34027395421094 2.1336693237335633
    vertex 74.69795676216732 71.34027395421094 1.127986593019159e-14
    vertex 67.18083176216733 71.34027395421094 2.1336693237335633
  endloop
endfacet
facet normal -0.00028816542320203294 0.9999999584803436 -7.210567232384271e-21
  outer loop
    vertex 74.69795676216732 71.34027395421094 43.83535599999998
    vertex 73.08648791683778 71.34027395421094 2.1336693237335633
    vertex 73.08648791683778 71.34027395421094 41.70168667626643
  endloop
endfacet
facet normal -0.00028816542320203294 0.9999999584803436 -7.210567232384271e-21
  outer loop
    vertex 74.69795676216732 71.34027395421094 43.83535599999998
    vertex 73.08648791683778 71.34027395421094 41.70168667626643
    vertex 40.131294762167336 71.33031303701347 43.83535599999998
  endloop
endfacet
facet normal 1.0 -0.0 -0.0
  outer loop
    vertex 67.18083176216733 71.34027395421094 2.1336693237335633
    vertex 67.18083176216733 53.340437954210955 41.70168667626643
    vertex 67.18083176216733 53.340437954210955 2.1336693237335633
  endloop
endfacet
facet normal 1.0 -0.0 -0.0
  outer loop
    vertex 67.18083176216733 53.340437954210955 41.70168667626643
    vertex 67.18083176216733 71.34027395421094 2.1336693237335633
    vertex 67.18083176216733 71.34027395421094 41.70168667626643
  endloop
endfacet
facet normal -0.0 -0.0 1.0
  outer loop
    vertex 71.85462559421093 53.340437954210955 2.1336693237335633
    vertex 67.18083176216733 71.34027395421094 2.1336693237335633
    vertex 67.18083176216733 53.340437954210955 2.1336693237335633
  endloop
endfacet
facet normal -0.0 -0.0 1.0
  outer loop
    vertex 67.18083176216733 71.34027395421094 2.1336693237335633
    vertex 71.85462559421093 53.340437954210955 2.1336693237335633
    vertex 73.08648791683778 71.34027395421094 2.1336693237335633
  endloop
endfacet
facet normal 0.0 0.0 -1.0
  outer loop
    vertex 73.08648791683778 71.34027395421094 41.70168667626643
    vertex 67.18083176216733 53.340437954210955 41.70168667626643
    vertex 67.18083176216733 71.34027395421094 41.70168667626643
  endloop
endfacet
facet normal 0.0 0.0 -1.0
  outer loop
    vertex 67.18083176216733 53.340437954210955 41.70168667626643
    vertex 73.08648791683778 71.34027395421094 41.70168667626643
    vertex 71.85462559421093 53.340437954210955 41.70168667626643
  endloop
endfacet
facet normal 0.9973271908170586 -0.07306486472275563 9.136254929405434e-19
  outer loop
    vertex 74.69795676216732 71.34027395421094 1.127986593019159e-14
    vertex 73.379276599347 53.340437954210955 43.83535599999998
    vertex 73.379276599347 53.340437954210955 1.127986593019159e-14
  endloop
endfacet
facet normal 0.9973271908170586 -0.07306486472275563 9.136254929405434e-19
  outer loop
    vertex 73.379276599347 53.340437954210955 43.83535599999998
    vertex 74.69795676216732 71.34027395421094 1.127986593019159e-14
    vertex 74.69795676216732 71.34027395421094 43.83535599999998
  endloop
endfacet
facet normal 0.0 -1.0 0.0
  outer loop
    vertex 73.379276599347 53.340437954210955 1.127986593019159e-14
    vertex 71.85462559421093 53.340437954210955 2.1336693237335633
    vertex 65.27045376216734 53.340437954210955 1.127986593019159e-14
  endloop
endfacet
facet normal 0.0 -1.0 0.0
  outer loop
    vertex 71.85462559421093 53.340437954210955 2.1336693237335633
    vertex 73.379276599347 53.340437954210955 1.127986593019159e-14
    vertex 73.379276599347 53.340437954210955 43.83535599999998
  endloop
endfacet
facet normal 0.0 -1.0 0.0
  outer loop
    vertex 71.85462559421093 53.340437954210955 2.1336693237335633
    vertex 73.379276599347 53.340437954210955 43.83535599999998
    vertex 71.85462559421093 53.340437954210955 41.70168667626643
  endloop
endfacet
facet normal 0.0 -1.0 0.0
  outer loop
    vertex 71.85462559421093 53.340437954210955 41.70168667626643
    vertex 73.379276599347 53.340437954210955 43.83535599999998
    vertex 67.18083176216733 53.340437954210955 41.70168667626643
  endloop
endfacet
facet normal 0.0 -1.0 0.0
  outer loop
    vertex 65.27045376216734 53.340437954210955 1.127986593019159e-14
    vertex 67.18083176216733 53.340437954210955 2.1336693237335633
    vertex 65.27045376216734 53.340437954210955 43.83535599999998
  endloop
endfacet
facet normal 0.0 -1.0 0.0
  outer loop
    vertex 67.18083176216733 53.340437954210955 2.1336693237335633
    vertex 65.27045376216734 53.340437954210955 1.127986593019159e-14
    vertex 71.85462559421093 53.340437954210955 2.1336693237335633
  endloop
endfacet
facet normal 0.0 -1.0 0.0
  outer loop
    vertex 65.27045376216734 53.340437954210955 43.83535599999998
    vertex 67.18083176216733 53.340437954210955 2.1336693237335633
    vertex 67.18083176216733 53.340437954210955 41.70168667626643
  endloop
endfacet
facet normal 0.0 -1.0 0.0
  outer loop
    vertex 65.27045376216734 53.340437954210955 43.83535599999998
    vertex 67.18083176216733 53.340437954210955 41.70168667626643
    vertex 73.379276599347 53.340437954210955 43.83535599999998
  endloop
endfacet
facet normal -0.9976663541699783 0.06827771054439087 0.0
  outer loop
    vertex 73.08648791683778 71.34027395421094 41.70168667626643
    vertex 71.85462559421093 53.340437954210955 2.1336693237335633
    vertex 71.85462559421093 53.340437954210955 41.70168667626643
  endloop
endfacet
facet normal -0.9976663541699783 0.06827771054439087 0.0
  outer loop
    vertex 71.85462559421093 53.340437954210955 2.1336693237335633
    vertex 73.08648791683778 71.34027395421094 41.70168667626643
    vertex 73.08648791683778 71.34027395421094 2.1336693237335633
  endloop
endfacet
endsolid PinzaLateral
